<svg width="17" height="18" viewBox="0 0 17 18" fill="none" xmlns="http://www.w3.org/2000/svg">
<g id="Icon/Fill/navigation-2" filter="url(#filter0_dd)">
<path id="Mask" fill-rule="evenodd" clip-rule="evenodd" d="M10.042 14.2499C10.0289 14.2499 10.0164 14.2493 10.0039 14.2487C9.72137 14.2318 9.48574 14.0268 9.42949 13.7493L8.46824 9.01991C8.41824 8.77366 8.22637 8.58179 7.98012 8.53179L3.25074 7.56991C2.97324 7.51429 2.76824 7.27866 2.75137 6.99616C2.73449 6.71304 2.90887 6.45429 3.17762 6.36554L13.1776 3.03241C13.402 2.95616 13.6495 3.01491 13.817 3.18304C13.9845 3.35054 14.0426 3.59804 13.9682 3.82241L10.6345 13.8224C10.5495 14.0793 10.3095 14.2499 10.042 14.2499Z" fill="#231F20"/>
<mask id="mask0" mask-type="alpha" maskUnits="userSpaceOnUse" x="2" y="2" width="12" height="13">
<path id="Mask_2" fill-rule="evenodd" clip-rule="evenodd" d="M10.042 14.2499C10.0289 14.2499 10.0164 14.2493 10.0039 14.2487C9.72137 14.2318 9.48574 14.0268 9.42949 13.7493L8.46824 9.01991C8.41824 8.77366 8.22637 8.58179 7.98012 8.53179L3.25074 7.56991C2.97324 7.51429 2.76824 7.27866 2.75137 6.99616C2.73449 6.71304 2.90887 6.45429 3.17762 6.36554L13.1776 3.03241C13.402 2.95616 13.6495 3.01491 13.817 3.18304C13.9845 3.35054 14.0426 3.59804 13.9682 3.82241L10.6345 13.8224C10.5495 14.0793 10.3095 14.2499 10.042 14.2499Z" fill="white"/>
</mask>
<g mask="url(#mask0)">
<g id="&#240;&#159;&#142;&#168; Color">
<rect id="Base" x="1.50012" y="0.5" width="15" height="15" fill="white"/>
</g>
</g>
</g>
<defs>
<filter id="filter0_dd" x="-0.499878" y="-0.5" width="19" height="19" filterUnits="userSpaceOnUse" color-interpolation-filters="sRGB">
<feFlood flood-opacity="0" result="BackgroundImageFix"/>
<feColorMatrix in="SourceAlpha" type="matrix" values="0 0 0 0 0 0 0 0 0 0 0 0 0 0 0 0 0 0 127 0"/>
<feOffset dy="1"/>
<feGaussianBlur stdDeviation="0.5"/>
<feColorMatrix type="matrix" values="0 0 0 0 0 0 0 0 0 0 0 0 0 0 0 0 0 0 0.03 0"/>
<feBlend mode="normal" in2="BackgroundImageFix" result="effect1_dropShadow"/>
<feColorMatrix in="SourceAlpha" type="matrix" values="0 0 0 0 0 0 0 0 0 0 0 0 0 0 0 0 0 0 127 0"/>
<feOffset dy="1"/>
<feGaussianBlur stdDeviation="1"/>
<feColorMatrix type="matrix" values="0 0 0 0 0 0 0 0 0 0 0 0 0 0 0 0 0 0 0.03 0"/>
<feBlend mode="normal" in2="effect1_dropShadow" result="effect2_dropShadow"/>
<feBlend mode="normal" in="SourceGraphic" in2="effect2_dropShadow" result="shape"/>
</filter>
</defs>
</svg>
